<svg width="18" height="18" viewBox="0 0 18 18" fill="none" xmlns="http://www.w3.org/2000/svg">
<path d="M9 13C7.9 13 6.95833 12.6083 6.175 11.825C5.39167 11.0417 5 10.1 5 9C5 7.9 5.39167 6.95833 6.175 6.175C6.95833 5.39167 7.9 5 9 5C10.1 5 11.0417 5.39167 11.825 6.175C12.6083 6.95833 13 7.9 13 9C13 10.1 12.6083 11.0417 11.825 11.825C11.0417 12.6083 10.1 13 9 13V13M9 11C9.55 11 10.0208 10.8042 10.4125 10.4125C10.8042 10.0208 11 9.55 11 9C11 8.45 10.8042 7.97917 10.4125 7.5875C10.0208 7.19583 9.55 7 9 7C8.45 7 7.97917 7.19583 7.5875 7.5875C7.19583 7.97917 7 8.45 7 9C7 9.55 7.19583 10.0208 7.5875 10.4125C7.97917 10.8042 8.45 11 9 11V11M9 9V9V9V9V9V9V9V9V9V9M2 18C1.45 18 0.979167 17.8042 0.5875 17.4125C0.195833 17.0208 0 16.55 0 16V12H2V16V16V16H6V18H2V18M12 18V16H16V16V16V12H18V16C18 16.55 17.8042 17.0208 17.4125 17.4125C17.0208 17.8042 16.55 18 16 18H12V18M0 6V2C0 1.45 0.195833 0.979167 0.5875 0.5875C0.979167 0.195833 1.45 0 2 0H6V2H2V2V2V6H0V6M16 6V2V2V2H12V0H16C16.55 0 17.0208 0.195833 17.4125 0.5875C17.8042 0.979167 18 1.45 18 2V6H16V6" fill="#474552"/>
</svg>
